<svg width="186" height="71" viewBox="0 0 186 71" fill="none" xmlns="http://www.w3.org/2000/svg">
<rect width="186" height="71" fill="#1E1E1E"/>
<path d="M35.9338 12.9943C36.1898 12.6529 37.0005 12.3329 38.3658 12.0343C39.7738 11.6929 41.0965 11.5223 42.3338 11.5223C43.5712 11.5223 44.5952 11.6929 45.4058 12.0343L39.1338 60.2263H30.4298L32.9258 38.5943L32.0938 38.8503C28.1685 40.0023 24.6058 41.1329 21.4058 42.2423L20.5098 49.2823C19.4858 56.8343 15.9445 60.6103 9.88584 60.6103C7.70984 60.6103 6.0245 59.9703 4.82984 58.6903C3.63517 57.3676 3.03784 55.6823 3.03784 53.6343C3.03784 49.0689 6.25917 44.9516 12.7018 41.2823L15.9658 13.5063C16.7765 12.9516 17.8432 12.4823 19.1658 12.0983C20.4885 11.7143 21.7685 11.5223 23.0058 11.5223C24.2432 11.5223 25.0538 11.5436 25.4378 11.5863L22.1098 37.0583C24.7125 36.1196 27.9978 35.1169 31.9658 34.0503L33.5018 33.6663L35.9338 12.9943ZM7.51784 52.6743C7.51784 54.0396 8.1365 54.7223 9.37384 54.7223C10.0565 54.7223 10.5045 54.5303 10.7178 54.1463C10.9312 53.7196 11.0805 53.3783 11.1658 53.1223C11.2938 52.8236 11.4005 52.4396 11.4858 51.9703C11.5712 51.5009 11.6352 51.0956 11.6778 50.7543C11.7205 50.3703 11.7632 49.8796 11.8058 49.2823C11.8485 48.6849 11.8912 48.2156 11.9338 47.8743L12.0618 46.9143C9.0325 49.0049 7.51784 50.9249 7.51784 52.6743ZM77.1248 60.5463C73.1995 60.5463 70.5968 59.1809 69.3168 56.4503C67.0982 59.2236 64.2395 60.6103 60.7408 60.6103C57.2848 60.6103 54.3622 59.4369 51.9728 57.0903C49.6262 54.7436 48.4528 51.6503 48.4528 47.8103C48.4528 42.2209 50.0955 37.7623 53.3808 34.4343C56.6662 31.1063 60.8262 29.4423 65.8608 29.4423C65.9888 29.4423 66.1168 29.4423 66.2448 29.4423C68.3782 29.4423 70.3408 29.8049 72.1328 30.5303C73.2848 29.8049 74.6715 29.4423 76.2928 29.4423C77.9568 29.4423 79.1515 29.6556 79.8768 30.0823C79.4928 33.2396 79.0875 36.3543 78.6608 39.4263C78.2342 42.4556 77.9355 44.6103 77.7648 45.8903C77.3808 48.7916 77.1888 50.8823 77.1888 52.1623C77.1888 53.8689 77.8715 54.7223 79.2368 54.7223C80.3035 54.7223 81.4342 54.0183 82.6288 52.6103C83.8235 51.1596 84.8688 48.8983 85.7648 45.8263C87.0022 46.9356 87.8555 48.1729 88.3248 49.5383C87.0875 53.5916 85.4235 56.4503 83.3328 58.1143C81.2422 59.7356 79.1728 60.5463 77.1248 60.5463ZM66.8208 34.4343C64.0902 34.4343 61.9142 35.4796 60.2928 37.5703C58.7142 39.6183 57.7755 42.6903 57.4768 46.7863C57.4342 47.1703 57.4128 47.5329 57.4128 47.8743C57.4128 49.9649 57.9035 51.6289 58.8848 52.8663C59.9088 54.1036 61.2102 54.7223 62.7888 54.7223C65.4768 54.7223 67.5035 52.8236 68.8688 49.0263L70.4048 35.2023C69.1675 34.6903 67.9728 34.4343 66.8208 34.4343ZM102.587 37.8263C102.587 35.9489 101.713 35.0103 99.9633 35.0103C98.2567 35.0103 96.8913 36.1196 95.8673 38.3383C100.475 41.9649 102.779 46.0396 102.779 50.5623C102.779 53.8476 101.862 56.3436 100.027 58.0503C98.1927 59.7569 95.8887 60.6103 93.1153 60.6103C90.342 60.6103 88.3153 59.7569 87.0353 58.0503C85.7553 56.3009 85.1153 54.1036 85.1153 51.4583C85.1153 50.6476 85.1367 50.0503 85.1793 49.6663L87.4193 30.1463C88.9553 29.6769 90.5127 29.4423 92.0913 29.4423C94.694 29.4423 95.9953 30.4023 95.9953 32.3223V32.4503C97.702 30.4449 99.878 29.4423 102.523 29.4423C104.443 29.4423 105.937 29.8903 107.003 30.7863C108.07 31.6396 108.603 32.7916 108.603 34.2423C108.603 35.6929 108.049 36.8876 106.939 37.8263C105.873 38.7223 104.465 39.1703 102.715 39.1703C102.63 39.1703 102.545 39.1703 102.459 39.1703C102.545 38.7009 102.587 38.2529 102.587 37.8263ZM98.6193 50.2423C98.6193 47.7676 97.3393 45.2929 94.7793 42.8183C94.0113 48.9623 93.6273 52.0556 93.6273 52.0983C93.6273 53.8903 94.3527 54.7863 95.8033 54.7863C97.6807 54.7863 98.6193 53.2716 98.6193 50.2423ZM139.074 37.1863C139.074 41.6236 136.429 45.0156 131.138 47.3623C131.266 48.1303 131.458 49.0476 131.714 50.1143C132.482 53.2716 133.762 54.8929 135.554 54.9783C135.682 54.9783 135.81 54.9783 135.938 54.9783C139.352 54.9783 141.89 51.9703 143.554 45.9543C144.45 46.7649 145.304 47.9809 146.114 49.6023C145.517 51.9063 144.664 53.8476 143.554 55.4263C142.488 57.0049 141.314 58.1356 140.034 58.8183C137.773 60.0129 135.64 60.6103 133.634 60.6103C128.941 60.6103 125.656 57.9863 123.778 52.7383C123.053 50.6476 122.562 48.5143 122.306 46.3383C124.738 45.7409 126.658 44.7596 128.066 43.3943C129.474 41.9863 130.178 40.4929 130.178 38.9143C130.178 36.1836 128.813 34.8183 126.082 34.8183C124.589 34.8183 123.309 35.3943 122.242 36.5463C121.176 37.6556 120.472 38.9996 120.13 40.5783C119.874 42.7543 119.448 46.1889 118.85 50.8823C118.296 55.5329 117.933 58.6476 117.762 60.2263H109.25C112.322 34.0716 114.178 18.0076 114.818 12.0343C115.714 11.6929 116.93 11.5223 118.466 11.5223C121.794 11.5223 123.458 12.5036 123.458 14.4663V14.8503C122.605 22.5729 121.816 28.4823 121.09 32.5783C123.437 30.4023 126.381 29.3143 129.922 29.3143C132.568 29.3143 134.744 29.9969 136.45 31.3623C138.2 32.7276 139.074 34.6689 139.074 37.1863ZM170.312 60.5463C166.387 60.5463 163.784 59.1809 162.504 56.4503C160.286 59.2236 157.427 60.6103 153.928 60.6103C150.472 60.6103 147.55 59.4369 145.16 57.0903C142.814 54.7436 141.64 51.6503 141.64 47.8103C141.64 42.2209 143.283 37.7623 146.568 34.4343C149.854 31.1063 154.014 29.4423 159.048 29.4423C159.176 29.4423 159.304 29.4423 159.432 29.4423C161.566 29.4423 163.528 29.8049 165.32 30.5303C166.472 29.8049 167.859 29.4423 169.48 29.4423C171.144 29.4423 172.339 29.6556 173.064 30.0823C172.68 33.2396 172.275 36.3543 171.848 39.4263C171.422 42.4556 171.123 44.6103 170.952 45.8903C170.568 48.7916 170.376 50.8823 170.376 52.1623C170.376 53.8689 171.059 54.7223 172.424 54.7223C173.491 54.7223 174.622 54.0183 175.816 52.6103C177.011 51.1596 178.056 48.8983 178.952 45.8263C180.19 46.9356 181.043 48.1729 181.512 49.5383C180.275 53.5916 178.611 56.4503 176.52 58.1143C174.43 59.7356 172.36 60.5463 170.312 60.5463ZM160.008 34.4343C157.278 34.4343 155.102 35.4796 153.48 37.5703C151.902 39.6183 150.963 42.6903 150.664 46.7863C150.622 47.1703 150.6 47.5329 150.6 47.8743C150.6 49.9649 151.091 51.6289 152.072 52.8663C153.096 54.1036 154.398 54.7223 155.976 54.7223C158.664 54.7223 160.691 52.8236 162.056 49.0263L163.592 35.2023C162.355 34.6903 161.16 34.4343 160.008 34.4343Z" fill="white"/>
<path d="M0 3.0001L186 3" stroke="white" stroke-width="6"/>
<line y1="67.1019" x2="186" y2="67.1019" stroke="white" stroke-width="6"/>
</svg>
