<svg width="189" height="65" viewBox="0 0 189 65" fill="none" xmlns="http://www.w3.org/2000/svg">
<rect width="189" height="65" fill="#1E1E1E"/>
<path d="M37.776 9.76789C38.032 9.42656 38.8427 9.10656 40.208 8.80789C41.616 8.46656 42.9387 8.29589 44.176 8.29589C45.4133 8.29589 46.4373 8.46656 47.248 8.80789L40.976 56.9999H32.272L34.768 35.3679L33.936 35.6239C30.0107 36.7759 26.448 37.9066 23.248 39.0159L22.352 46.0559C21.328 53.6079 17.7867 57.3839 11.728 57.3839C9.552 57.3839 7.86667 56.7439 6.672 55.4639C5.47733 54.1412 4.88 52.4559 4.88 50.4079C4.88 45.8426 8.10133 41.7252 14.544 38.0559L17.808 10.2799C18.6187 9.72522 19.6853 9.25589 21.008 8.87189C22.3307 8.48789 23.6107 8.29589 24.848 8.29589C26.0853 8.29589 26.896 8.31722 27.28 8.35989L23.952 33.8319C26.5547 32.8932 29.84 31.8906 33.808 30.8239L35.344 30.4399L37.776 9.76789ZM9.36 49.4479C9.36 50.8132 9.97867 51.4959 11.216 51.4959C11.8987 51.4959 12.3467 51.3039 12.56 50.9199C12.7733 50.4932 12.9227 50.1519 13.008 49.8959C13.136 49.5972 13.2427 49.2132 13.328 48.7439C13.4133 48.2746 13.4773 47.8692 13.52 47.5279C13.5627 47.1439 13.6053 46.6532 13.648 46.0559C13.6907 45.4586 13.7333 44.9892 13.776 44.6479L13.904 43.6879C10.8747 45.7786 9.36 47.6986 9.36 49.4479ZM78.967 57.3199C75.0417 57.3199 72.439 55.9546 71.159 53.2239C68.9403 55.9972 66.0817 57.3839 62.583 57.3839C59.127 57.3839 56.2043 56.2106 53.815 53.8639C51.4683 51.5172 50.295 48.4239 50.295 44.5839C50.295 38.9946 51.9377 34.5359 55.223 31.2079C58.5083 27.8799 62.6683 26.2159 67.703 26.2159C67.831 26.2159 67.959 26.2159 68.087 26.2159C70.2203 26.2159 72.183 26.5786 73.975 27.3039C75.127 26.5786 76.5137 26.2159 78.135 26.2159C79.799 26.2159 80.9937 26.4292 81.719 26.8559C81.335 30.0132 80.9297 33.1279 80.503 36.1999C80.0763 39.2292 79.7777 41.3839 79.607 42.6639C79.223 45.5652 79.031 47.6559 79.031 48.9359C79.031 50.6426 79.7137 51.4959 81.079 51.4959C82.1457 51.4959 83.2763 50.7919 84.471 49.3839C85.6657 47.9332 86.711 45.6719 87.607 42.5999C88.8443 43.7092 89.6977 44.9466 90.167 46.3119C88.9297 50.3652 87.2657 53.2239 85.175 54.8879C83.0843 56.5092 81.015 57.3199 78.967 57.3199ZM68.663 31.2079C65.9323 31.2079 63.7563 32.2532 62.135 34.3439C60.5563 36.3919 59.6177 39.4639 59.319 43.5599C59.2763 43.9439 59.255 44.3066 59.255 44.6479C59.255 46.7386 59.7457 48.4026 60.727 49.6399C61.751 50.8772 63.0523 51.4959 64.631 51.4959C67.319 51.4959 69.3457 49.5972 70.711 45.7999L72.247 31.9759C71.0097 31.4639 69.815 31.2079 68.663 31.2079ZM104.43 34.5999C104.43 32.7226 103.555 31.7839 101.806 31.7839C100.099 31.7839 98.7335 32.8932 97.7095 35.1119C102.318 38.7386 104.622 42.8132 104.622 47.3359C104.622 50.6212 103.704 53.1172 101.87 54.8239C100.035 56.5306 97.7308 57.3839 94.9575 57.3839C92.1842 57.3839 90.1575 56.5306 88.8775 54.8239C87.5975 53.0746 86.9575 50.8772 86.9575 48.2319C86.9575 47.4212 86.9788 46.8239 87.0215 46.4399L89.2615 26.9199C90.7975 26.4506 92.3548 26.2159 93.9335 26.2159C96.5362 26.2159 97.8375 27.1759 97.8375 29.0959V29.2239C99.5442 27.2186 101.72 26.2159 104.366 26.2159C106.286 26.2159 107.779 26.6639 108.846 27.5599C109.912 28.4132 110.446 29.5652 110.446 31.0159C110.446 32.4666 109.891 33.6612 108.782 34.5999C107.715 35.4959 106.307 35.9439 104.558 35.9439C104.472 35.9439 104.387 35.9439 104.302 35.9439C104.387 35.4746 104.43 35.0266 104.43 34.5999ZM100.462 47.0159C100.462 44.5412 99.1815 42.0666 96.6215 39.5919C95.8535 45.7359 95.4695 48.8292 95.4695 48.8719C95.4695 50.6639 96.1948 51.5599 97.6455 51.5599C99.5228 51.5599 100.462 50.0452 100.462 47.0159ZM140.917 33.9599C140.917 38.3972 138.271 41.7892 132.981 44.1359C133.109 44.9039 133.301 45.8212 133.557 46.8879C134.325 50.0452 135.605 51.6666 137.397 51.7519C137.525 51.7519 137.653 51.7519 137.781 51.7519C141.194 51.7519 143.733 48.7439 145.397 42.7279C146.293 43.5386 147.146 44.7546 147.957 46.3759C147.359 48.6799 146.506 50.6212 145.397 52.1999C144.33 53.7786 143.157 54.9092 141.877 55.5919C139.615 56.7866 137.482 57.3839 135.477 57.3839C130.783 57.3839 127.498 54.7599 125.621 49.5119C124.895 47.4212 124.405 45.2879 124.149 43.1119C126.581 42.5146 128.501 41.5332 129.909 40.1679C131.317 38.7599 132.021 37.2666 132.021 35.6879C132.021 32.9572 130.655 31.5919 127.925 31.5919C126.431 31.5919 125.151 32.1679 124.085 33.3199C123.018 34.4292 122.314 35.7732 121.973 37.3519C121.717 39.5279 121.29 42.9626 120.693 47.6559C120.138 52.3066 119.775 55.4212 119.605 56.9999H111.093C114.165 30.8452 116.021 14.7812 116.661 8.80789C117.557 8.46656 118.773 8.29589 120.309 8.29589C123.637 8.29589 125.301 9.27722 125.301 11.2399V11.6239C124.447 19.3466 123.658 25.2559 122.933 29.3519C125.279 27.1759 128.223 26.0879 131.765 26.0879C134.41 26.0879 136.586 26.7706 138.293 28.1359C140.042 29.5012 140.917 31.4426 140.917 33.9599ZM172.155 57.3199C168.229 57.3199 165.627 55.9546 164.347 53.2239C162.128 55.9972 159.269 57.3839 155.771 57.3839C152.315 57.3839 149.392 56.2106 147.003 53.8639C144.656 51.5172 143.483 48.4239 143.483 44.5839C143.483 38.9946 145.125 34.5359 148.411 31.2079C151.696 27.8799 155.856 26.2159 160.891 26.2159C161.019 26.2159 161.147 26.2159 161.275 26.2159C163.408 26.2159 165.371 26.5786 167.163 27.3039C168.315 26.5786 169.701 26.2159 171.323 26.2159C172.987 26.2159 174.181 26.4292 174.907 26.8559C174.523 30.0132 174.117 33.1279 173.691 36.1999C173.264 39.2292 172.965 41.3839 172.795 42.6639C172.411 45.5652 172.219 47.6559 172.219 48.9359C172.219 50.6426 172.901 51.4959 174.267 51.4959C175.333 51.4959 176.464 50.7919 177.659 49.3839C178.853 47.9332 179.899 45.6719 180.795 42.5999C182.032 43.7092 182.885 44.9466 183.355 46.3119C182.117 50.3652 180.453 53.2239 178.363 54.8879C176.272 56.5092 174.203 57.3199 172.155 57.3199ZM161.851 31.2079C159.12 31.2079 156.944 32.2532 155.323 34.3439C153.744 36.3919 152.805 39.4639 152.507 43.5599C152.464 43.9439 152.443 44.3066 152.443 44.6479C152.443 46.7386 152.933 48.4026 153.915 49.6399C154.939 50.8772 156.24 51.4959 157.819 51.4959C160.507 51.4959 162.533 49.5972 163.899 45.7999L165.435 31.9759C164.197 31.4639 163.003 31.2079 161.851 31.2079Z" fill="white"/>
<path d="M3 3.00009L189 2.99999" stroke="white" stroke-width="6"/>
<line y1="61.9999" x2="186" y2="61.9999" stroke="white" stroke-width="6"/>
</svg>
